<?xml version="1.0" standalone="no"?>
<!DOCTYPE svg PUBLIC "-//W3C//DTD SVG 20010904//EN"
 "http://www.w3.org/TR/2001/REC-SVG-20010904/DTD/svg10.dtd">
<svg version="1.0" xmlns="http://www.w3.org/2000/svg"
 width="100pt" height="100pt" viewBox="0 0 1024.000000 1024.000000"
 preserveAspectRatio="xMidYMid meet">

<g transform="translate(0.000000,1024.000000) scale(0.100000,-0.100000)"
fill="red" stroke="none">
<path d="M3750 5655 l0 -1135 200 0 200 0 2 797 3 798 159 -280 c252 -443 525
-924 638 -1125 l105 -185 233 -3 232 -2 -25 42 c-13 24 -95 167 -180 319 -86
153 -297 524 -470 825 -172 302 -380 669 -463 816 l-149 268 -242 0 -243 0 0
-1135z"/>
<path d="M5494 6775 c-181 -33 -311 -144 -375 -321 -19 -52 -23 -86 -27 -276
l-4 -218 206 0 206 0 0 158 c0 180 10 214 70 244 32 16 76 18 473 18 l437 0 0
205 0 205 -457 -1 c-327 -1 -478 -4 -529 -14z"/>
<path d="M4880 5857 c0 -5 50 -96 111 -203 l110 -194 570 0 569 0 0 204 0 204
-680 -1 c-374 -1 -680 -6 -680 -10z"/>
<path d="M5172 5338 c8 -13 83 -146 167 -295 84 -150 155 -273 157 -273 2 0 4
133 4 295 l0 295 -171 0 -171 0 14 -22z"/>
</g>
</svg>
